<svg xmlns="http://www.w3.org/2000/svg" viewBox="0 0 83 109.51"><defs><style>.cls-1{fill:#ff454a}.cls-2{fill:#0d202f}</style></defs><title>Neighborhood devleopment</title><g id="Layer_2" data-name="Layer 2"><g id="Layer_1-2" data-name="Layer 1"><path class="cls-1" d="M0 92.51h83v17H0z"/><path class="cls-2" d="M28.19 32.89a2.85 2.85 0 0 0-2 3.48 2.85 2.85 0 1 0 2-3.48z"/><path class="cls-2" d="M41.15 0L21.34 16.74V9.57H8.06V28L1 33.93v13.94l6.11-5.19v36.7h68.17V41.61L83 47.87V33.93zm23.48 63.74h-7.56l-.49-5.56-5.48.49-.5-5.67-5.67.5-.44-4.5-5.43.85c-.33-.28-.67-.54-1-.83a.83.83 0 0 0-1-.16 11.05 11.05 0 0 1-8.63-20.34A11.13 11.13 0 0 1 43 33.95a10.71 10.71 0 0 1 .82 6.89 1 1 0 0 0 .42 1.16l20.39 16.49z"/></g></g></svg>