<svg xmlns="http://www.w3.org/2000/svg" viewBox="0 0 83 109.51"><defs><style>.cls-1{fill:#ff454a;}.cls-2{fill:#0d202f;}</style></defs><title>Neighborhood devleopment</title><g id="Layer_2" data-name="Layer 2"><g id="Layer_1-2" data-name="Layer 1"><rect class="cls-1" y="92.51" width="83" height="17"/><path class="cls-2" d="M28.19,32.89a2.85,2.85,0,0,0-2,3.48,2.85,2.85,0,1,0,2-3.48Z"/><path class="cls-2" d="M41.15,0,21.34,16.74V9.57H8.06V28L1,33.93V47.87l6.11-5.19v36.7H75.28V41.61L83,47.87V33.93ZM64.63,63.74H57.07l-.49-5.56-5.48.49L50.6,53l-5.67.5,0,0L44.49,49l-5.43.85c-.33-.28-.67-.54-1-.83a.83.83,0,0,0-1-.16,11.05,11.05,0,0,1-8.63-20.34A11.13,11.13,0,0,1,43,33.95a10.71,10.71,0,0,1,.82,6.89A1,1,0,0,0,44.24,42L64.63,58.49Z"/></g></g></svg>