<svg viewBox="0.0 0.0 256.76640419947506 253.96325459317586" fill="none" stroke-linecap="square" stroke-miterlimit="10" xmlns="http://www.w3.org/2000/svg"><clipPath id="a"><path d="M0 0h256.766v253.963H0V0z"/></clipPath><g clip-path="url(#a)"><path d="M0 0h256.766v253.963H0zm2.593 2.503l250.3 247.653"/><path stroke="#000" stroke-width="3" stroke-linejoin="round" stroke-linecap="butt" d="M2.593 2.503l250.3 247.653"/><path d="M252.892 2.503L2.593 250.156"/><path stroke="#000" stroke-width="3" stroke-linejoin="round" stroke-linecap="butt" d="M252.892 2.503L2.593 250.156"/><path d="M75.856-25.789h98.393V79H75.856z"/><path fill="#000" d="M124.606 75.371l-23.25-60.75h-.375q.656 7.219.656 17.157V75.37h-7.36V6.84h12l21.704 56.531h.375l21.89-56.531h11.907v68.531h-7.97V31.215q0-7.594.657-16.5h-.375l-23.437 60.656h-6.422z"/><path d="M10.65 65.23h98.395v104.787H10.65z"/><path fill="#000" d="M19.088 184.437q-4.406 0-6.937-1.266v-6.797q3.328.938 6.937.938 4.641 0 7.047-2.813 2.422-2.812 2.422-8.11V97.86h7.969v67.874q0 8.907-4.5 13.797-4.5 4.907-12.938 4.907z"/><path d="M178.28 65.23h98.395v104.787H178.28z"/><path fill="#000" d="M204.671 137.89v28.5h-7.968V97.858H215.5q12.609 0 18.625 4.829 6.03 4.828 6.03 14.53 0 13.595-13.78 18.376l18.609 30.797h-9.422l-16.594-28.5h-14.297zm0-6.844h10.922q8.438 0 12.375-3.344 3.938-3.36 3.938-10.062 0-6.797-4.016-9.797-4-3-12.86-3h-10.359v26.203zm-99.094 79.917l22.166-22.836 22.165 22.836-22.165 22.836z"/><path stroke="#000" stroke-linejoin="round" stroke-linecap="butt" d="M105.577 210.963l22.166-22.836 22.165 22.836-22.165 22.836z"/></g></svg>