<svg viewBox="0.0 0.0 960.0 720.0" fill="none" stroke-linecap="square" stroke-miterlimit="10" xmlns="http://www.w3.org/2000/svg"><clipPath id="a"><path d="M0 0h960v720H0V0z"/></clipPath><g clip-path="url(#a)"><path d="M0 0h960v720H0zm366.16 281.165l250.3 247.654"/><path stroke="#000" stroke-width="3" stroke-linejoin="round" stroke-linecap="butt" d="M366.16 281.165l250.3 247.654"/><path d="M616.46 281.165L366.16 528.82"/><path stroke="#000" stroke-width="3" stroke-linejoin="round" stroke-linecap="butt" d="M616.46 281.165L366.16 528.82"/><path d="M439.423 252.874h98.393v104.787h-98.393z"/><path fill="#000" d="M488.173 354.034l-23.25-60.75h-.375q.656 7.219.656 17.156v43.594h-7.36v-68.531h12l21.704 56.531h.375l21.89-56.531h11.906v68.531h-7.968v-44.156q0-7.594.656-16.5h-.375l-23.438 60.656h-6.421z"/><path d="M374.218 343.892h98.394V448.68h-98.394z"/><path fill="#000" d="M382.655 463.1q-4.406 0-6.937-1.266v-6.797q3.328.937 6.937.937 4.641 0 7.047-2.812 2.422-2.813 2.422-8.11v-68.53h7.969v67.874q0 8.906-4.5 13.797-4.5 4.906-12.938 4.906z"/><path d="M541.848 343.892h98.393V448.68h-98.393z"/><path fill="#000" d="M568.238 416.552v28.5h-7.968v-68.53h18.797q12.609 0 18.625 4.827 6.03 4.828 6.03 14.532 0 13.593-13.78 18.375l18.609 30.796h-9.422l-16.594-28.5h-14.297zm0-6.843h10.922q8.438 0 12.375-3.344 3.938-3.36 3.938-10.063 0-6.796-4.016-9.796-4-3-12.86-3h-10.359v26.203zm-99.094 79.917l22.166-22.836 22.165 22.836-22.165 22.836z"/><path stroke="#000" stroke-linejoin="round" stroke-linecap="butt" d="M469.144 489.626l22.166-22.836 22.165 22.836-22.165 22.836z"/></g></svg>