<?xml version="1.0" standalone="yes"?>

<svg version="1.1" viewBox="0.0 0.0 960.0 720.0" fill="none" stroke="none" stroke-linecap="square" stroke-miterlimit="10" xmlns="http://www.w3.org/2000/svg" xmlns:xlink="http://www.w3.org/1999/xlink"><clipPath id="p.0"><path d="m0 0l960.0 0l0 720.0l-960.0 0l0 -720.0z" clip-rule="nonzero"></path></clipPath><g clip-path="url(#p.0)"><path fill="#000000" fill-opacity="0.0" d="m0 0l960.0 0l0 720.0l-960.0 0z" fill-rule="nonzero"></path><path fill="#000000" fill-opacity="0.0" d="m366.1601 281.16534l250.2992 247.65356" fill-rule="nonzero"></path><path stroke="#000000" stroke-width="3.0" stroke-linejoin="round" stroke-linecap="butt" d="m366.1601 281.16534l250.2992 247.65356" fill-rule="nonzero"></path><path fill="#000000" fill-opacity="0.0" d="m616.4593 281.16534l-250.2992 247.65356" fill-rule="nonzero"></path><path stroke="#000000" stroke-width="3.0" stroke-linejoin="round" stroke-linecap="butt" d="m616.4593 281.16534l-250.2992 247.65356" fill-rule="nonzero"></path><path fill="#000000" fill-opacity="0.0" d="m439.42258 252.87401l98.39371 0l0 104.7874l-98.39371 0z" fill-rule="nonzero"></path><path fill="#000000" d="m488.17258 354.034l-23.25 -60.75l-0.375 0q0.65625 7.21875 0.65625 17.15625l0 43.59375l-7.359375 0l0 -68.53125l12.0 0l21.703125 56.53125l0.375 0l21.890594 -56.53125l11.90625 0l0 68.53125l-7.96875 0l0 -44.15625q0 -7.59375 0.65625 -16.5l-0.375 0l-23.43747 60.65625l-6.421875 0z" fill-rule="nonzero"></path><path fill="#000000" fill-opacity="0.0" d="m374.21783 343.8924l98.39371 0l0 104.787384l-98.39371 0z" fill-rule="nonzero"></path><path fill="#000000" d="m382.65533 463.09927q-4.40625 0 -6.9375 -1.265625l0 -6.796875q3.328125 0.9375 6.9375 0.9375q4.640625 0 7.046875 -2.8125q2.421875 -2.8125 2.421875 -8.109375l0 -68.53125l7.96875 0l0 67.875q0 8.90625 -4.5 13.796875q-4.5 4.90625 -12.9375 4.90625z" fill-rule="nonzero"></path><path fill="#000000" fill-opacity="0.0" d="m541.8478 343.8924l98.39368 0l0 104.787384l-98.39368 0z" fill-rule="nonzero"></path><path fill="#000000" d="m568.2384 416.5524l0 28.5l-7.96875 0l0 -68.53125l18.796875 0q12.609375 0 18.625 4.828125q6.03125 4.828125 6.03125 14.53125q0 13.59375 -13.78125 18.375l18.609375 30.796875l-9.421875 0l-16.59375 -28.5l-14.296875 0zm0 -6.84375l10.921875 0q8.4375 0 12.375 -3.34375q3.9375 -3.359375 3.9375 -10.0625q0 -6.796875 -4.015625 -9.796875q-4.0 -3.0 -12.859375 -3.0l-10.359375 0l0 26.203125z" fill-rule="nonzero"></path><path fill="#000000" d="m469.14435 489.62598l22.165375 -22.835938l22.165314 22.835938l-22.165314 22.835938z" fill-rule="nonzero"></path><path stroke="#000000" stroke-width="1.0" stroke-linejoin="round" stroke-linecap="butt" d="m469.14435 489.62598l22.165375 -22.835938l22.165314 22.835938l-22.165314 22.835938z" fill-rule="nonzero"></path></g></svg>

