<?xml version="1.0" standalone="yes"?>

<svg version="1.1" viewBox="0.0 0.0 256.76640419947506 253.96325459317586" fill="none" stroke="none" stroke-linecap="square" stroke-miterlimit="10" xmlns="http://www.w3.org/2000/svg" xmlns:xlink="http://www.w3.org/1999/xlink"><clipPath id="p.0"><path d="m0 0l256.76642 0l0 253.96326l-256.76642 0l0 -253.96326z" clip-rule="nonzero"></path></clipPath><g clip-path="url(#p.0)"><path fill="#000000" fill-opacity="0.0" d="m0 0l256.76642 0l0 253.96326l-256.76642 0z" fill-rule="nonzero"></path><path fill="#000000" fill-opacity="0.0" d="m2.593176 2.5026248l250.29922 247.65355" fill-rule="nonzero"></path><path stroke="#000000" stroke-width="3.0" stroke-linejoin="round" stroke-linecap="butt" d="m2.593176 2.5026248l250.29922 247.65355" fill-rule="nonzero"></path><path fill="#000000" fill-opacity="0.0" d="m252.8924 2.5026248l-250.29922 247.65355" fill-rule="nonzero"></path><path stroke="#000000" stroke-width="3.0" stroke-linejoin="round" stroke-linecap="butt" d="m252.8924 2.5026248l-250.29922 247.65355" fill-rule="nonzero"></path><path fill="#000000" fill-opacity="0.0" d="m75.855644 -25.788713l98.3937 0l0 104.7874l-98.3937 0z" fill-rule="nonzero"></path><path fill="#000000" d="m124.605644 75.371284l-23.25 -60.75l-0.375 0q0.65625 7.21875 0.65625 17.15625l0 43.59375l-7.359375 0l0 -68.53125l12.0 0l21.703125 56.53125l0.37499237 0l21.890625 -56.53125l11.90625 0l0 68.53125l-7.96875 0l0 -44.15625q0 -7.59375 0.65625 -16.5l-0.375 0l-23.4375 60.65625l-6.4218674 0z" fill-rule="nonzero"></path><path fill="#000000" fill-opacity="0.0" d="m10.650919 65.22966l98.3937 0l0 104.7874l-98.3937 0z" fill-rule="nonzero"></path><path fill="#000000" d="m19.088419 184.43652q-4.40625 0 -6.9375 -1.265625l0 -6.796875q3.328125 0.9375 6.9375 0.9375q4.640625 0 7.046875 -2.8125q2.421875 -2.8125 2.421875 -8.109375l0 -68.53124l7.968748 0l0 67.87499q0 8.90625 -4.5 13.796875q-4.499998 4.90625 -12.937498 4.90625z" fill-rule="nonzero"></path><path fill="#000000" fill-opacity="0.0" d="m178.28084 65.22966l98.39369 0l0 104.7874l-98.39369 0z" fill-rule="nonzero"></path><path fill="#000000" d="m204.67146 137.88965l0 28.5l-7.96875 0l0 -68.53124l18.796875 0q12.609375 0 18.625 4.828125q6.03125 4.828125 6.03125 14.53125q0 13.593742 -13.78125 18.374992l18.609375 30.796875l-9.421875 0l-16.59375 -28.5l-14.296875 0zm0 -6.84375l10.921875 0q8.4375 0 12.375 -3.3437424q3.9375 -3.359375 3.9375 -10.0625q0 -6.796875 -4.015625 -9.796875q-4.0 -3.0 -12.859375 -3.0l-10.359375 0l0 26.203117z" fill-rule="nonzero"></path><path fill="#000000" d="m105.57743 210.96326l22.165352 -22.835953l22.16536 22.835953l-22.16536 22.835953z" fill-rule="nonzero"></path><path stroke="#000000" stroke-width="1.0" stroke-linejoin="round" stroke-linecap="butt" d="m105.57743 210.96326l22.165352 -22.835953l22.16536 22.835953l-22.16536 22.835953z" fill-rule="nonzero"></path></g></svg>

